<svg xmlns="http://www.w3.org/2000/svg" xmlns:xlink="http://www.w3.org/1999/xlink" viewBox="0 0 1067.03 444.23"><defs><style>.a{fill:#606060;}.b{fill:url(#a);}</style><radialGradient id="a" cx="131.46" cy="86.95" r="314.34" gradientUnits="userSpaceOnUse"><stop offset="0" stop-color="#e2007f"/><stop offset="0.14" stop-color="#db0083"/><stop offset="0.35" stop-color="#c9008d"/><stop offset="0.58" stop-color="#ab009d"/><stop offset="0.85" stop-color="#8200b5"/><stop offset="1" stop-color="#6600c4"/></radialGradient></defs><title>Artboard 1</title><path class="a" d="M391,237l4.43-5.27c4,3.48,8.09,5.45,13.25,5.45,4.55,0,7.42-2.16,7.42-5.28v-.12c0-3-1.68-4.61-9.47-6.41-8.93-2.16-14-4.8-14-12.53v-.12c0-7.19,6-12.16,14.32-12.16a23.24,23.24,0,0,1,15.22,5.28l-4,5.57c-3.78-2.82-7.55-4.31-11.39-4.31-4.31,0-6.82,2.22-6.82,5v.12c0,3.23,1.91,4.67,10,6.59,8.88,2.16,13.43,5.34,13.43,12.28v.12c0,7.85-6.17,12.52-15,12.52A25.83,25.83,0,0,1,391,237Zm58.75-11.68V201.14h7.37V225c0,7.79,4,11.92,10.61,11.92s10.55-3.9,10.55-11.62V201.14h7.37v23.79c0,12.53-7.07,18.81-18,18.81S449.71,237.46,449.71,225.29Zm65-24.15h16.54c9.83,0,15.94,5.57,15.94,14v.12c0,9.41-7.55,14.32-16.78,14.32h-8.33v13.48h-7.37ZM530.65,223c5.57,0,9-3.12,9-7.49v-.12c0-4.91-3.53-7.49-9-7.49h-8.57V223Zm42.24-21.81H604v6.59H580.27v10.91h21v6.59h-21V236.5h24v6.59H572.9Zm58.87,0h18.69c5.28,0,9.41,1.56,12.11,4.19a12.68,12.68,0,0,1,3.48,9v.12c0,6.89-4.13,11-9.95,12.7l11.33,15.88h-8.75l-10.31-14.62h-9.23v14.62h-7.37Zm18.15,20.79c5.27,0,8.63-2.76,8.63-7v-.12c0-4.5-3.24-7-8.69-7H639.13v14.08Zm41,.3v-.12a21.37,21.37,0,0,1,21.63-21.69c7.31,0,11.8,2,16.12,5.69L724,211.69a16.42,16.42,0,0,0-11.75-4.5c-7.73,0-13.6,6.77-13.6,14.8v.12c0,8.63,5.69,15,14.26,15A17.1,17.1,0,0,0,723,233.92v-7.85H712.32v-6.41h17.86v17.61a26.74,26.74,0,0,1-17.5,6.53C699.56,243.81,690.93,234.46,690.93,222.23ZM759,201.14h7.36v41.95H759Zm51.09-.3h6.83l18.46,42.25h-7.79L823.33,233H803.49l-4.32,10.13h-7.55Zm10.55,25.59-7.25-16.78-7.19,16.78Zm39.95-25.29h6.83l22.48,29v-29h7.25v41.95H891l-23.13-29.84v29.84h-7.26ZM935.89,208h-13.3v-6.83h34V208h-13.3v35.12h-7.43Z"/><path class="a" d="M759,274.88l1.08-1.52a8.35,8.35,0,0,0,4.95,1.83c1.72,0,3-.88,3-2.27v-.06c0-1.44-1.69-2-3.57-2.52-2.24-.64-4.73-1.41-4.73-4v-.06c0-2.46,2-4.09,4.86-4.09a9.79,9.79,0,0,1,5.14,1.58l-1,1.61A8.11,8.11,0,0,0,764.5,264c-1.69,0-2.76.88-2.76,2.07v.06c0,1.35,1.77,1.88,3.68,2.46,2.21.66,4.59,1.52,4.59,4.09v.05c0,2.71-2.24,4.29-5.09,4.29A9.82,9.82,0,0,1,759,274.88Zm15.43-3.59v-8.88h2.13v8.35c0,2.66,1.44,4.31,4,4.31a4.22,4.22,0,0,0,4.29-4.48v-8.19h2.1v14.3h-2.1v-2.49A5.45,5.45,0,0,1,779.9,277C776.44,277,774.43,274.69,774.43,271.29Zm18.09-8.88h2.13v2.88a6.42,6.42,0,0,1,5.47-3.18c3.43,0,6.83,2.71,6.83,7.41v.05c0,4.67-3.37,7.44-6.83,7.44a6.45,6.45,0,0,1-5.47-3v7.16h-2.13Zm12.25,7.19v-.06c0-3.37-2.32-5.53-5-5.53a5.33,5.33,0,0,0-5.17,5.5v.05a5.32,5.32,0,0,0,5.17,5.53C802.49,275.11,804.76,273.06,804.76,269.6Zm6.14,0v-.06c0-4.12,2.91-7.44,6.86-7.44,4.23,0,6.66,3.37,6.66,7.55a5.62,5.62,0,0,1,0,.69H813.06a5,5,0,0,0,5,4.84,5.92,5.92,0,0,0,4.51-2l1.33,1.19A7.37,7.37,0,0,1,818,277,7.11,7.11,0,0,1,810.9,269.6Zm11.37-.83c-.22-2.6-1.71-4.86-4.56-4.86-2.49,0-4.37,2.07-4.65,4.86Zm6.84-6.36h2.13v3.73a6.12,6.12,0,0,1,5.83-4v2.3h-.16c-3.12,0-5.67,2.24-5.67,6.55v5.7h-2.13Zm11.58,16.79,1-1.66a9.13,9.13,0,0,0,5.5,1.83c3.15,0,5.2-1.74,5.2-5.09v-1.69a6.77,6.77,0,0,1-5.61,3,6.61,6.61,0,0,1-6.72-6.69v-.05a6.77,6.77,0,0,1,12.3-3.87v-2.57h2.13v11.81a6.88,6.88,0,0,1-1.83,5.06,7.51,7.51,0,0,1-5.45,1.91A11.21,11.21,0,0,1,840.69,279.2Zm11.72-10.31v-.06a5,5,0,0,0-5.25-4.84,4.72,4.72,0,0,0-4.95,4.81v.06a4.84,4.84,0,0,0,4.95,4.87A5,5,0,0,0,852.41,268.88ZM860,256.94h2.43v2.35H860Zm.14,5.47h2.13v14.3h-2.13Zm6.68,10.15v-.05c0-3,2.49-4.62,6.11-4.62a15.18,15.18,0,0,1,4.4.61V268c0-2.57-1.58-3.9-4.26-3.9a10,10,0,0,0-4.34,1.05l-.63-1.74a11.83,11.83,0,0,1,5.2-1.19,6.27,6.27,0,0,1,4.62,1.58A5.65,5.65,0,0,1,879.4,268v8.74h-2v-2.16a6.26,6.26,0,0,1-5.17,2.46C869.53,277,866.84,275.49,866.84,272.56Zm10.54-1.1v-1.38a14.85,14.85,0,0,0-4.2-.61c-2.68,0-4.18,1.16-4.18,3v.06c0,1.8,1.66,2.85,3.6,2.85C875.22,275.33,877.38,273.72,877.38,271.46Zm7.47-9H887v2.49a5.42,5.42,0,0,1,4.9-2.79c3.46,0,5.48,2.32,5.48,5.72v8.88h-2.13v-8.35c0-2.65-1.44-4.31-4-4.31a4.21,4.21,0,0,0-4.29,4.48v8.18h-2.13Zm18.36,10.51v-8.63h-2v-1.88h2V258.1h2.13v4.31h4.53v1.88h-4.53v8.35a2.11,2.11,0,0,0,2.4,2.38,4.47,4.47,0,0,0,2.07-.5v1.82a5.32,5.32,0,0,1-2.57.61C904.95,277,903.21,275.83,903.21,272.92Zm11.15.88h2.54v2.9h-2.54Zm8.1-16.87h2.44v2.35h-2.44Zm.14,5.47h2.13v14.3h-2.13Zm6.89,7.22v-.06a7.45,7.45,0,0,1,14.9-.05v.05a7.42,7.42,0,0,1-7.49,7.47A7.32,7.32,0,0,1,929.48,269.63Zm12.72,0v-.06a5.41,5.41,0,0,0-5.31-5.58,5.28,5.28,0,0,0-5.23,5.53v.05a5.36,5.36,0,0,0,5.28,5.56A5.27,5.27,0,0,0,942.2,269.63Z"/><path class="b" d="M332.59,233.44a244.33,244.33,0,0,1-51.19,26.85c-62.89,24.33-122.91,20.7-134.07-8.13-4.86-12.56.36-27.83,13-43.07a6.27,6.27,0,0,0,5,.18,6.34,6.34,0,0,0,3.63-8.21,5.89,5.89,0,0,0-.41-.87c17-16.65,42.3-32.63,72.45-44.29a242.65,242.65,0,0,1,57.12-14.75,111,111,0,0,1,8.85,9.33c-18.37-.62-40.68,3.33-63.39,12.11-49.37,19.11-81.94,53.89-72.73,77.68,3.41,8.82,12.08,14.89,24.14,18.07a10.27,10.27,0,0,0,.67,2.9,10.46,10.46,0,0,0,19.62-.32c18,.32,39.65-3.64,61.65-12.16,23.24-9,42.76-21.46,55.94-34.61A111.06,111.06,0,0,1,332.59,233.44ZM322,174c5,12.95-18.06,33.94-51.53,46.89s-64.65,12.95-69.66,0a10.28,10.28,0,0,1-.68-3.5,7.48,7.48,0,0,0,7.06-10.27,7.69,7.69,0,0,0-1.69-2.61c8.27-10.66,25.42-22.23,46.82-30.52C285.76,161,316.95,161,322,174Zm-45,17a18.24,18.24,0,1,0-10.42,23.6A18.26,18.26,0,0,0,276.93,191ZM143.09,256.48c-5.61-14.49.43-32,14.92-49.26a6,6,0,0,1-.89-1.58,6.34,6.34,0,0,1,9.43-7.57c17.54-17.11,43.08-33.26,73.36-45a245.14,245.14,0,0,1,55.34-14.52A111,111,0,1,0,331,244a248.7,248.7,0,0,1-46.68,23.8C218.56,293.21,155.34,288.16,143.09,256.48Zm101.55-91.17c-46.56,18-77.73,49.63-69.61,70.61,3,7.69,10.82,12.88,21.85,15.49a10.46,10.46,0,0,1,18.15,2c17.06.09,37.8-3.87,59-12.08,24.81-9.61,45.26-23.07,57.71-36.73a109.88,109.88,0,0,0-4.37-17.68c-5.77,14.25-26.52,30.76-54.08,41.42-36.37,14.07-70.81,12.66-76.93-3.17a15.4,15.4,0,0,1-.47-9.12,7.59,7.59,0,0,1,1.53-13.26,7.43,7.43,0,0,1,5.48.05c9.33-11.6,26.7-23.48,48.22-31.81,26.23-10.15,51.45-12.24,65.77-6.69a110.09,110.09,0,0,0-7.55-10.88C291.33,152.28,268.27,156.17,244.64,165.31Z"/></svg>